<svg xmlns="http://www.w3.org/2000/svg" width="42" height="42" viewBox="0 0 42 42">
  <g id="BirthIcon" transform="translate(-1235 -471)">
    <circle id="Ellipse_9" data-name="Ellipse 9" cx="21" cy="21" r="21" transform="translate(1235 471)" fill="#f6f7f8"/>
    <path id="calendar_today_FILL0_wght300_GRAD0_opsz24" d="M141.892-844.614a1.826,1.826,0,0,1-1.342-.549,1.826,1.826,0,0,1-.549-1.342v-14a1.826,1.826,0,0,1,.549-1.342,1.826,1.826,0,0,1,1.342-.549h1.449v-1.408a.78.78,0,0,1,.23-.574.78.78,0,0,1,.574-.23.779.779,0,0,1,.574.23.779.779,0,0,1,.23.574v1.408h7.928v-1.429a.76.76,0,0,1,.225-.559.759.759,0,0,1,.559-.225.759.759,0,0,1,.559.225.76.76,0,0,1,.225.559v1.429H155.9a1.826,1.826,0,0,1,1.342.549,1.826,1.826,0,0,1,.549,1.342v14a1.826,1.826,0,0,1-.549,1.342,1.826,1.826,0,0,1-1.342.549Zm0-1.569h14a.308.308,0,0,0,.221-.1.308.308,0,0,0,.1-.221v-9.819H141.57v9.819a.308.308,0,0,0,.1.221A.308.308,0,0,0,141.892-846.183Zm-.322-11.71h14.648v-2.616a.308.308,0,0,0-.1-.221.308.308,0,0,0-.221-.1h-14a.308.308,0,0,0-.221.1.308.308,0,0,0-.1.221Zm0,0v0Z" transform="translate(1106.999 1346.614)" fill="#072635"/>
  </g>
</svg>
