<svg xmlns="http://www.w3.org/2000/svg" width="42" height="42" viewBox="0 0 42 42">
  <g id="FemaleIcon" transform="translate(-1235 -471)">
    <circle id="Ellipse_9" data-name="Ellipse 9" cx="21" cy="21" r="21" transform="translate(1235 471)" fill="#f6f7f8"/>
    <path id="female_FILL0_wght300_GRAD0_opsz24" d="M275.456-772.423H273.94a.88.88,0,0,1-.648-.261.88.88,0,0,1-.261-.648.879.879,0,0,1,.261-.648.88.88,0,0,1,.648-.261h1.515v-3.1a6.172,6.172,0,0,1-3.907-2.136,6.214,6.214,0,0,1-1.548-4.19,6.072,6.072,0,0,1,1.861-4.484,6.164,6.164,0,0,1,4.5-1.843,6.164,6.164,0,0,1,4.5,1.843,6.072,6.072,0,0,1,1.861,4.484,6.215,6.215,0,0,1-1.548,4.19,6.172,6.172,0,0,1-3.907,2.136v3.1h1.515a.879.879,0,0,1,.648.261.88.88,0,0,1,.261.648.879.879,0,0,1-.261.648.88.88,0,0,1-.648.261h-1.515v1.515a.879.879,0,0,1-.261.648.88.88,0,0,1-.648.261.879.879,0,0,1-.648-.261.88.88,0,0,1-.261-.648Zm.911-6.667a4.375,4.375,0,0,0,3.214-1.332,4.385,4.385,0,0,0,1.33-3.216,4.375,4.375,0,0,0-1.332-3.214,4.385,4.385,0,0,0-3.216-1.33,4.375,4.375,0,0,0-3.214,1.332,4.385,4.385,0,0,0-1.33,3.216,4.375,4.375,0,0,0,1.332,3.214A4.385,4.385,0,0,0,276.366-779.09Z" transform="translate(979.999 1271.999)" fill="#072635"/>
  </g>
</svg>
