<svg xmlns="http://www.w3.org/2000/svg" width="23.733" height="17" viewBox="0 0 23.733 17">
  <path id="group_FILL0_wght300_GRAD0_opsz24" d="M71.925-757.892a2.855,2.855,0,0,1,.464-1.6,3.165,3.165,0,0,1,1.24-1.1,17.938,17.938,0,0,1,3.335-1.251,14.514,14.514,0,0,1,3.685-.44,14.514,14.514,0,0,1,3.685.44,17.938,17.938,0,0,1,3.335,1.251,3.165,3.165,0,0,1,1.24,1.1,2.855,2.855,0,0,1,.464,1.6v.819a1.721,1.721,0,0,1-.516,1.235,1.677,1.677,0,0,1-1.251.532H73.692a1.7,1.7,0,0,1-1.251-.516,1.7,1.7,0,0,1-.516-1.252v-.819Zm21.966,2.586H91.249a3.637,3.637,0,0,0,.334-.852,3.69,3.69,0,0,0,.115-.915v-.962a4.528,4.528,0,0,0-.561-2.183A5.286,5.286,0,0,0,89.547-762a12.241,12.241,0,0,1,2.221.54,14.907,14.907,0,0,1,2.006.865,4.143,4.143,0,0,1,1.392,1.134,2.32,2.32,0,0,1,.491,1.425v.962a1.7,1.7,0,0,1-.516,1.252A1.7,1.7,0,0,1,93.891-755.306Zm-13.242-8.858a3.92,3.92,0,0,1-2.875-1.2,3.92,3.92,0,0,1-1.2-2.875,3.92,3.92,0,0,1,1.2-2.875,3.92,3.92,0,0,1,2.875-1.2,3.92,3.92,0,0,1,2.875,1.2,3.92,3.92,0,0,1,1.2,2.875,3.92,3.92,0,0,1-1.2,2.875A3.92,3.92,0,0,1,80.649-764.164Zm10.043-4.071a3.92,3.92,0,0,1-1.2,2.875,3.92,3.92,0,0,1-2.875,1.2,3.571,3.571,0,0,1-.5-.045,4.365,4.365,0,0,1-.5-.1,6.169,6.169,0,0,0,1.058-1.835,6.037,6.037,0,0,0,.37-2.094,5.864,5.864,0,0,0-.377-2.086,6.724,6.724,0,0,0-1.05-1.841,2.173,2.173,0,0,1,.5-.116,4.7,4.7,0,0,1,.5-.027,3.92,3.92,0,0,1,2.875,1.2A3.92,3.92,0,0,1,90.692-768.235ZM73.67-757.051H87.628v-.841a1.175,1.175,0,0,0-.182-.649,1.517,1.517,0,0,0-.578-.5,13.719,13.719,0,0,0-2.957-1.122,13.379,13.379,0,0,0-3.261-.381,13.379,13.379,0,0,0-3.261.381,13.719,13.719,0,0,0-2.957,1.122,1.517,1.517,0,0,0-.578.5,1.175,1.175,0,0,0-.182.649Zm6.979-8.858a2.24,2.24,0,0,0,1.643-.683,2.24,2.24,0,0,0,.683-1.643,2.24,2.24,0,0,0-.683-1.643,2.24,2.24,0,0,0-1.643-.683,2.24,2.24,0,0,0-1.643.683,2.24,2.24,0,0,0-.683,1.643,2.24,2.24,0,0,0,.683,1.643A2.24,2.24,0,0,0,80.649-765.909ZM80.649-757.051ZM80.649-768.235Z" transform="translate(-71.925 772.306)" fill="#072635"/>
</svg>
