<svg id="HeartBPM" xmlns="http://www.w3.org/2000/svg" xmlns:xlink="http://www.w3.org/1999/xlink" width="96" height="96" viewBox="0 0 96 96">
  <defs>
    <clipPath id="clip-path">
      <rect id="Rectangle_35" data-name="Rectangle 35" width="59.711" height="53.998" fill="none"/>
    </clipPath>
  </defs>
  <circle id="Ellipse_8" data-name="Ellipse 8" cx="48" cy="48" r="48" fill="#fff"/>
  <g id="Health" transform="translate(18.145 24.001)">
    <g id="Group_13" data-name="Group 13" clip-path="url(#clip-path)">
      <path id="Path_16" data-name="Path 16" d="M29.855,54,4.951,29.092a16.948,16.948,0,0,1-1.185-1.314l2.01-1.632a14.236,14.236,0,0,0,1,1.112L29.854,50.333,52.926,27.258a14.317,14.317,0,0,0,0-20.247l-.233-.235a14.318,14.318,0,0,0-20.248,0l-2.6,2.6-2.59-2.6A14.337,14.337,0,0,0,7,6.776l-.229.23a14.226,14.226,0,0,0-4.19,10.127H0A16.8,16.8,0,0,1,4.951,5.181l.23-.229a16.925,16.925,0,0,1,23.914,0l.761.761.761-.761a16.906,16.906,0,0,1,23.909,0h0l.233.234a16.906,16.906,0,0,1,0,23.908Z" transform="translate(0 0)" fill="#072635"/>
      <path id="Path_17" data-name="Path 17" d="M8.763,25.277A11.53,11.53,0,0,1,8.763,9l.227-.226a11.513,11.513,0,0,1,16.282,0h0l4.573,4.582,4.582-4.585a11.513,11.513,0,0,1,16.282,0l.212.214a11.509,11.509,0,0,1,.038,16.276l-.021.022L29.855,46.368Z" transform="translate(0 0)" fill="#f05b66"/>
      <path id="Path_18" data-name="Path 18" d="M20.131,30.786l-4.24-13.852-2.785,6.335L.028,23.161V20.573l11.389.108,4.91-11.17,4.466,14.594,2.241-4.154h17.6v2.588H24.578Z" transform="translate(0 0)" fill="#072635"/>
    </g>
  </g>
</svg>
