<svg id="temperature" xmlns="http://www.w3.org/2000/svg" xmlns:xlink="http://www.w3.org/1999/xlink" width="96" height="96" viewBox="0 0 96 96">
  <defs>
    <clipPath id="clip-path">
      <rect id="Rectangle_45" data-name="Rectangle 45" width="31.632" height="56" fill="none"/>
    </clipPath>
  </defs>
  <circle id="Ellipse_8" data-name="Ellipse 8" cx="48" cy="48" r="48" fill="#fff"/>
  <g id="Group_17" data-name="Group 17" transform="translate(32 20)">
    <g id="Group_16" data-name="Group 16" clip-path="url(#clip-path)">
      <path id="Path_26" data-name="Path 26" d="M13.707,56A13.706,13.706,0,0,1,7.474,30.086V0H19.941V30.086A13.706,13.706,0,0,1,13.707,56M9.474,2V31.359l-.588.266a11.708,11.708,0,1,0,9.643,0l-.588-.266V2Z"/>
      <rect id="Rectangle_38" data-name="Rectangle 38" width="5.025" height="44.411" transform="translate(11.195 3.921)" fill="#f05b66"/>
      <path id="Path_27" data-name="Path 27" d="M23.3,42.529a9.6,9.6,0,1,1-9.6-9.6,9.6,9.6,0,0,1,9.6,9.6" fill="#f05b66"/>
      <rect id="Rectangle_39" data-name="Rectangle 39" width="6.471" height="2" transform="translate(23.161 0.118)"/>
      <rect id="Rectangle_40" data-name="Rectangle 40" width="8.471" height="2" transform="translate(23.161 5.365)"/>
      <rect id="Rectangle_41" data-name="Rectangle 41" width="6.471" height="2" transform="translate(23.161 26.353)"/>
      <rect id="Rectangle_42" data-name="Rectangle 42" width="6.471" height="2" transform="translate(23.161 10.612)"/>
      <rect id="Rectangle_43" data-name="Rectangle 43" width="6.471" height="2" transform="translate(23.161 21.106)"/>
      <rect id="Rectangle_44" data-name="Rectangle 44" width="8.471" height="2" transform="translate(23.161 15.859)"/>
    </g>
  </g>
</svg>
